<?xml version="1.0" standalone="no"?>
<!DOCTYPE svg PUBLIC "-//W3C//DTD SVG 20010904//EN"
 "http://www.w3.org/TR/2001/REC-SVG-20010904/DTD/svg10.dtd">
<svg version="1.0" xmlns="http://www.w3.org/2000/svg"
 width="700.000000pt" height="700.000000pt" viewBox="0 0 700.000000 700.000000"
 preserveAspectRatio="xMidYMid meet">
<metadata>
Created by potrace 1.14, written by Peter Selinger 2001-2017
</metadata>
<g transform="translate(0.000000,700.000000) scale(0.100000,-0.100000)"
fill="#000000" stroke="none">
<path d="M740 6767 c0 -3 570 -1710 583 -1747 3 -8 375 -1124 828 -2480 452
-1356 826 -2468 831 -2471 5 -3 208 -5 451 -5 l442 1 533 1595 c293 877 535
1602 537 1610 2 8 265 797 584 1753 320 955 581 1740 581 1742 0 3 -198 5
-439 5 l-439 0 -37 -117 c-20 -65 -39 -125 -42 -133 -2 -8 -18 -55 -33 -105
-16 -49 -45 -142 -65 -205 -20 -63 -47 -149 -60 -190 -13 -41 -52 -167 -88
-280 -36 -113 -84 -266 -107 -340 -23 -74 -50 -160 -60 -190 -17 -51 -62 -195
-132 -420 -16 -52 -34 -108 -39 -125 -10 -28 -113 -353 -230 -725 -141 -449
-186 -591 -274 -870 -54 -168 -103 -325 -110 -350 -10 -36 -295 -938 -473
-1499 l-36 -114 -14 39 c-8 22 -18 53 -22 69 -4 17 -22 73 -38 125 -52 162
-229 731 -322 1030 -48 157 -104 335 -123 395 -35 108 -97 308 -142 455 -13
41 -58 185 -100 320 -94 299 -121 387 -145 465 -10 33 -42 134 -70 225 -28 91
-74 237 -102 325 -27 88 -63 203 -80 255 -16 52 -36 118 -45 145 -14 49 -56
184 -167 535 -81 259 -195 627 -216 695 -10 33 -41 134 -70 225 -91 290 -110
352 -110 356 0 2 -211 4 -470 4 -259 0 -470 -1 -470 -3z"/>
</g>
</svg>
