<?xml version="1.0" standalone="no"?>
<!DOCTYPE svg PUBLIC "-//W3C//DTD SVG 20010904//EN"
 "http://www.w3.org/TR/2001/REC-SVG-20010904/DTD/svg10.dtd">
<svg version="1.0" xmlns="http://www.w3.org/2000/svg"
 width="700.000000pt" height="700.000000pt" viewBox="0 0 700.000000 700.000000"
 preserveAspectRatio="xMidYMid meet">
<metadata>
Created by potrace 1.14, written by Peter Selinger 2001-2017
</metadata>
<g transform="translate(0.000000,700.000000) scale(0.100000,-0.100000)"
fill="#000000" stroke="none">
<path d="M2975 6695 l-520 -305 -12 42 c-6 24 -26 105 -43 180 l-32 138 -50
40 -51 40 -851 0 -851 -1 -49 -65 -49 -65 181 -619 c100 -340 182 -625 182
-632 0 -7 -71 -54 -158 -104 l-157 -91 -3 -1751 -2 -1750 837 -491 c461 -270
844 -495 851 -500 7 -4 58 -160 113 -347 55 -186 103 -341 107 -345 4 -3 27
-21 51 -38 l44 -31 986 0 986 0 49 38 50 38 98 335 c71 239 104 338 117 347
11 7 394 233 853 502 l833 488 0 1753 0 1752 -157 91 c-86 50 -157 96 -158
101 0 6 82 290 183 632 l184 621 -51 66 -50 66 -819 0 -818 0 -53 -40 -52 -40
-44 -187 c-23 -104 -46 -191 -49 -195 -3 -4 -251 137 -551 312 -300 176 -547
320 -550 320 -3 0 -239 -138 -525 -305z"/>
</g>
</svg>
